<svg viewBox="0 0 965.52 396.41" version="1.0" xmlns:xlink="http://www.w3.org/1999/xlink" xmlns="http://www.w3.org/2000/svg">
  <defs>
    <radialGradient id="p" gradientUnits="userSpaceOnUse" cy="289.6" cx="171.49" gradientTransform="matrix(.70799 -.17521 .03515 .14204 39.898 300.02)" r="123.17">
      <stop style="stop-color:#000;stop-opacity:.098039" offset="0"/>
      <stop style="stop-color:#000;stop-opacity:0" offset="1"/>
    </radialGradient>
    <radialGradient id="A" xlink:href="#a" gradientUnits="userSpaceOnUse" cy="387.4" cx="399.05" gradientTransform="matrix(1.6444 0 0 1.834 -256.44 -323.11)" r="14.334"/>
    <radialGradient id="y" xlink:href="#a" gradientUnits="userSpaceOnUse" cy="395.22" cx="341.77" gradientTransform="matrix(1.4375 0 0 1.8125 -149.53 -321.11)" r="11.369"/>
    <radialGradient id="j" xlink:href="#a" gradientUnits="userSpaceOnUse" cy="387.4" cx="399.05" gradientTransform="matrix(1.6444 0 0 1.834 -748.71 -383.91)" r="14.334"/>
    <radialGradient id="B" gradientUnits="userSpaceOnUse" cy="459.76" cx="382.08" gradientTransform="matrix(.64242 -.06082 .03088 .32621 122.42 333.02)" r="48.907">
      <stop style="stop-color:#502e1e" offset="0"/>
      <stop style="stop-color:#702000" offset=".5"/>
      <stop style="stop-color:#3b3b3b" offset="1"/>
    </radialGradient>
    <radialGradient id="k" xlink:href="#b" gradientUnits="userSpaceOnUse" cy="456.7" cx="543.95" gradientTransform="matrix(.99908 -.04288 .04975 1.1592 -22.221 -42.708)" r="28.569"/>
    <radialGradient id="m" xlink:href="#b" gradientUnits="userSpaceOnUse" cy="496.19" cx="521.39" gradientTransform="matrix(1 0 0 1.5314 0 -270.85)" r="28.936"/>
    <radialGradient id="n" xlink:href="#d" gradientUnits="userSpaceOnUse" cy="466.1" cx="532.61" gradientTransform="matrix(.98905 .14761 -.21552 1.4441 106.64 -286.81)" r="7.103"/>
    <radialGradient id="u" xlink:href="#d" gradientUnits="userSpaceOnUse" cy="466.1" cx="532.61" gradientTransform="matrix(.82311 .12284 -.17936 1.2018 560.07 -185.96)" r="7.103"/>
    <radialGradient id="t" xlink:href="#b" gradientUnits="userSpaceOnUse" cy="496.19" cx="521.39" gradientTransform="matrix(.83223 0 0 1.2745 471.32 -172.68)" r="28.936"/>
    <radialGradient id="r" xlink:href="#b" gradientUnits="userSpaceOnUse" cy="456.7" cx="543.95" gradientTransform="matrix(.83146 -.03569 .0414 .96472 452.83 17.185)" r="28.569"/>
    <radialGradient xlink:href="#b" id="e" gradientUnits="userSpaceOnUse" gradientTransform="matrix(.99908 -.04288 .04975 1.1592 -22.221 -42.708)" cx="543.95" cy="456.7" r="28.569"/>
    <radialGradient xlink:href="#b" id="g" gradientUnits="userSpaceOnUse" gradientTransform="matrix(1 0 0 1.5314 0 -270.85)" cx="521.39" cy="496.19" r="28.936"/>
    <radialGradient xlink:href="#d" id="h" gradientUnits="userSpaceOnUse" gradientTransform="matrix(.98905 .14761 -.21552 1.4441 106.64 -286.81)" cx="532.61" cy="466.1" r="7.103"/>
    <linearGradient id="d">
      <stop style="stop-color:gray" offset="0"/>
      <stop style="stop-color:#565656" offset="1"/>
    </linearGradient>
    <linearGradient id="c">
      <stop style="stop-color:#4d4d4d" offset="0"/>
      <stop style="stop-color:#4d4d4d;stop-opacity:.19608" offset="1"/>
    </linearGradient>
    <linearGradient id="b">
      <stop style="stop-color:#9e9e9e" offset="0"/>
      <stop style="stop-color:#4d4d4d" offset="1"/>
    </linearGradient>
    <linearGradient id="a">
      <stop style="stop-color:#4f4f4f" offset="0"/>
      <stop style="stop-color:#fff" offset="1"/>
    </linearGradient>
    <linearGradient id="o" y2="454.54" gradientUnits="userSpaceOnUse" x2="279.56" y1="526" x1="242.74">
      <stop style="stop-color:#000;stop-opacity:.058824" offset="0"/>
      <stop style="stop-color:#000;stop-opacity:0" offset="1"/>
    </linearGradient>
    <linearGradient id="x" y2="395.22" xlink:href="#a" gradientUnits="userSpaceOnUse" x2="348.88" y1="395.22" x1="321.88"/>
    <linearGradient id="z" y2="395.22" xlink:href="#a" gradientUnits="userSpaceOnUse" x2="348.88" gradientTransform="translate(-32.348 -110.92) scale(1.2609)" y1="395.22" x1="321.88"/>
    <linearGradient id="i" y2="395.22" xlink:href="#a" gradientUnits="userSpaceOnUse" x2="348.88" gradientTransform="translate(-524.62 -171.71) scale(1.2609)" y1="395.22" x1="321.88"/>
    <linearGradient id="l" y2="491.58" xlink:href="#c" gradientUnits="userSpaceOnUse" x2="545.84" y1="513.74" x1="559.44"/>
    <linearGradient id="s" y2="491.58" xlink:href="#c" gradientUnits="userSpaceOnUse" x2="545.84" gradientTransform="translate(471.32 52.727) scale(.83223)" y1="513.74" x1="559.44"/>
    <linearGradient id="w" y2="214.23" gradientUnits="userSpaceOnUse" x2="561.22" y1="123.94" x1="541.54">
      <stop style="stop-color:#ccc" offset="0"/>
      <stop style="stop-color:#fff" offset="1"/>
    </linearGradient>
    <linearGradient xlink:href="#c" id="f" gradientUnits="userSpaceOnUse" x1="559.44" y1="513.74" x2="545.84" y2="491.58"/>
    <filter id="q" x="-.019" y="-.022" width="1.039" height="1.044">
      <feGaussianBlur stdDeviation=".565"/>
    </filter>
    <filter id="v" x="-.019" y="-.075" width="1.038" height="1.151">
      <feGaussianBlur stdDeviation=".43"/>
    </filter>
  </defs>
  <path style="fill:#000;fill-rule:evenodd" d="m39.231 416.88 6.036-16.81-5.389-25.44-7.544 17.89-10.778 18.11z" transform="translate(-4.227 -173.6)"/>
  <path style="fill:#1a1a1a;fill-rule:evenodd;stroke:#000;stroke-width:1px" d="M536.74 566.08s-57.64 3.74-65.18-3.15c-30.02-5.98-38.21-90.8-38.21-90.8s16.18-2.83 34.61 8.99c19.78 87.79 68.78 84.96 68.78 84.96z" transform="translate(-374.857 -181.296)"/>
  <path style="fill:#000;fill-rule:evenodd;stroke:#000;stroke-width:1.1914px" d="M531.54 367.37c44.99-1.09 65.65 59.03 67.33 93.72 1.69 34.68-17.45 102.39-60.98 104.17-47.44 1.33-68.87-60.41-70.26-95.53-1.39-35.12 16.97-101.26 63.91-102.36z" transform="translate(-374.857 -181.296)"/>
  <path style="fill:#4d4d4d;fill-rule:evenodd;stroke:#000;stroke-width:1px" d="M584.46 544.4c17.43-125.61-5.01-147.23-23.33-169.25 10.95 5.27 40.22 25.15 34.01 127.73-2.26 40.49-7.14 37.03-10.68 41.52z" transform="translate(-374.857 -181.296)"/>
  <path style="fill:#e6e6e6;fill-rule:evenodd;stroke:#000;stroke-width:1px" d="M532.66 382.66c36.46-.95 53.2 51.31 54.57 81.46 1.37 30.15-14.15 89.01-49.43 90.56-38.45 1.15-55.82-52.52-56.94-83.04-1.13-30.53 13.75-88.03 51.8-88.98z" transform="translate(-374.857 -181.296)"/>
  <path style="fill:#4d4d4d;fill-rule:evenodd;stroke:#fff;stroke-width:.5;stroke-opacity:.39216" d="M530.71 384.24h7.88s1.53 48.36-.79 54.97c-2.46 6.94-9.89 11.07-9.89 11.07s7.9-9.76 8.17-13.97c-.84-44.06-5.37-52.07-5.37-52.07z" transform="translate(-374.857 -181.296)"/>
  <path style="fill:url(#e);fill-rule:evenodd;stroke:#fff;stroke-width:.5;stroke-opacity:.39216" d="M527.6 457.84c.32-1.31 3.41-1.42 3.41-1.42s5.22-6.47 14.5-13.65c8.99-10.31 15.92-45.77 15.92-45.77l7.1 8.82-17.62 36.95-13.08 15.07s9.29.77 14.79-.86c16.29-6.74 29.56-20.46 29.56-20.46l2.56 12.22s-18.52 6.22-30.42 13.65c-17.3 1.17-13.36 8.24-13.36 8.24s.22 1.91 17.34 5.12c11.15 6.33 26.44 11.08 26.44 11.08l-1.71 12.79s-14.05-13.71-27.86-19.33c-12.1-1.35-16.56-5.01-22.45-4.54 6.61-9.49-.97-17.11-5.12-17.91z" transform="translate(-374.857 -181.296)"/>
  <path style="fill:url(#f);fill-rule:evenodd;stroke:#fff;stroke-width:.5;stroke-opacity:.39216" d="M569.68 531.59c-2.01 3.87-4.52 7.28-6.43 9.93-1.66-21.01-14.44-47.16-17.16-48 .3-4.87-.29-4.34 2.34-4.55 8.66 10.37 19.23 44.29 21.25 42.62z" transform="translate(-374.857 -181.296)"/>
  <path style="fill:url(#g);fill-rule:evenodd;stroke:#fff;stroke-width:.5;stroke-opacity:.19608" d="M541.24 552.75s-5.9 1.32-12.13.9c4.56-1.32 7.34-13.19 7.64-52.55-2.4-10.62-10.78-16.17-10.78-16.17l-.9-7.64s-2.66-4-6.74 4.49c-5.84 6.48-27.99 15.26-30.54 20.22-2.55-5.37-3.12-11.35-3.14-13.93 4.51 2.21 34.58-11.23 34.58-11.23v-6.73s.87-4.71 4.04-4.5c-.86 9.65 8.54 12.58 8.54 12.58v7.64s2.69 6.22 8.53 12.57c3.15 9.95.9 54.35.9 54.35z" transform="translate(-374.857 -181.296)"/>
  <path style="fill:#4d4d4d;fill-rule:evenodd;stroke:#fff;stroke-width:.5;stroke-opacity:.39216" d="M508.9 394.65s-6.72 3.94-10.33 11.23c6.72-6.64 25.15 34.13 25.15 34.13l1.35 10.78s1.58-10.36 1.35-13.92c-1.58-5.36-17.52-42.22-17.52-42.22z" transform="translate(-374.857 -181.296)"/>
  <path style="fill:#666;fill-rule:evenodd;stroke:#fff;stroke-width:.5;stroke-opacity:.39216" d="M484 448.69s1.34-11.87 2.89-13.17c9.64 8.14 33.24 20.66 33.24 20.66s-1.35 2.63-1.35 6.74c-6.28-8.47-34.78-14.23-34.78-14.23Z" transform="translate(-374.857 -181.296)"/>
  <path style="fill:#4d4d4d;fill-rule:evenodd;stroke:#fff;stroke-width:.5;stroke-opacity:.39216" d="M524.41 486.8s2.03 5.01-.76 11.83c-4.56 9.59-13.4 29.02-20.64 34.75-2.96-1.32-8.35-10.49-10.83-15.86 4.83 17.53 20.14 27.94 20.14 27.94l-3.52-4.78s16.78-36.05 18.12-41.79c.34-6.26-2.51-12.09-2.51-12.09z" transform="translate(-374.857 -181.296)"/>
  <path style="fill:#1a1a1a;fill-rule:evenodd" d="M488.15 434.69c6.7 3.79 20.38 14.87 22.91 12.59 1.78-4.56 4.82-15.67-14.6-30.72-3.31-.7-6.95 12.32-8.31 18.13zM485.1 482.38c31.12-7.03 16.35-11.05 18.88-13.34-3.5-5.06 11.11-9.12-19.38-13.85-1.3 3.08-.16 25.41.5 27.19zM489.63 502.3c5.44-5.05 15.09-10.35 20.9-12.84 1.78 4.55 2.3 20.2-12.84 30.71-3.31.7-6.7-12.06-8.06-17.87zM510.56 397.68s8.57-4.04 14.6 4.78c3.51 4.29-.5 27.95-.5 27.95zM540.27 404.98l-1.01 28.45s11.67-17.81 10.07-22.91c-1.6-5.1-9.06-5.54-9.06-5.54z" transform="translate(-374.857 -181.296)"/>
  <path style="fill:#333;fill-rule:evenodd" d="M546.81 448.79s3.28-3.5 5.04-6.3c1.75-2.79 6.04-12.59 6.04-12.59l1.76 6.3s7.03.64 6.55 5.29c-3.26 3.13-19.14 9.81-19.14 9.81zM563.93 459.61c2.88 4.42 1.6 15.3-.25 17.37-5.63-3.97-13.33-4.82-13.09-8.56-.01-4.74 8.7-5.92 13.34-8.81zM548.32 485.04c2.39-2.27 17.55 7.56 18.38 11.08-11-5.55-4.77 10.7-8.06 9.56-8.07-21.52-12.46-17.37-10.32-20.64zM542.03 505.43c5.3 7.41 10.12 18.28 8.31 22.91-1.82 4.63-7.81 4.03-7.81 4.03s.99-21.26-.5-26.94z" transform="translate(-374.857 -181.296)"/>
  <path style="fill:#1a1a1a;fill-rule:evenodd" d="M511.1 538.45s8.57 4.04 14.6-4.78c3.51-4.29-.5-27.94-.5-27.94z" transform="translate(-374.857 -181.296)"/>
  <path style="fill:url(#h);stroke:#a4a4a4;stroke-width:.5" d="M536.51 466.79c.04 5.62-2.95 10.21-6.67 10.24-3.73.02-6.78-4.52-6.82-10.14-.05-5.62 2.95-10.21 6.67-10.24 3.02-.02 5.59 2.8 6.5 7.15" transform="translate(-374.857 -181.296)"/>
  <path style="fill:url(#i)" d="M-84.73 326.61c0 11.37-7.626 20.6-17.02 20.6-9.4 0-17.02-9.23-17.02-20.6 0-11.38 7.62-20.61 17.02-20.61 9.394 0 17.02 9.23 17.02 20.61z" transform="translate(122.533 -39.25) scale(.77203)"/>
  <path style="fill:url(#j)" d="M-87.418 326.61c0 11.37-6.422 20.6-14.332 20.6-7.91 0-14.34-9.23-14.34-20.6 0-11.38 6.43-20.61 14.34-20.61s14.332 9.23 14.332 20.61z" transform="translate(122.533 -39.25) scale(.77203)"/>
  <path style="fill:#1a1a1a;fill-rule:evenodd;stroke:#000;stroke-width:1px" d="M536.74 566.08s-57.64 3.74-65.18-3.15c-30.02-5.98-38.21-90.8-38.21-90.8s16.18-2.83 34.61 8.99c19.78 87.79 68.78 84.96 68.78 84.96z" transform="translate(-4.227 -173.6)"/>
  <path style="fill:#000;fill-rule:evenodd;stroke:#000;stroke-width:1.1914px" d="M531.54 367.37c44.99-1.09 65.65 59.03 67.33 93.72 1.69 34.68-17.45 102.39-60.98 104.17-47.44 1.33-68.87-60.41-70.26-95.53-1.39-35.12 16.97-101.26 63.91-102.36z" transform="translate(-4.227 -173.6)"/>
  <path style="fill:#4d4d4d;fill-rule:evenodd;stroke:#000;stroke-width:1px" d="M584.46 544.4c17.43-125.61-5.01-147.23-23.33-169.25 10.95 5.27 40.22 25.15 34.01 127.73-2.26 40.49-7.14 37.03-10.68 41.52z" transform="translate(-4.227 -173.6)"/>
  <path style="fill:#e6e6e6;fill-rule:evenodd;stroke:#000;stroke-width:1px" d="M532.66 382.66c36.46-.95 53.2 51.31 54.57 81.46 1.37 30.15-14.15 89.01-49.43 90.56-38.45 1.15-55.82-52.52-56.94-83.04-1.13-30.53 13.75-88.03 51.8-88.98z" transform="translate(-4.227 -173.6)"/>
  <path style="fill:#4d4d4d;fill-rule:evenodd;stroke:#fff;stroke-width:.5;stroke-opacity:.39216" d="M530.71 384.24h7.88s1.53 48.36-.79 54.97c-2.46 6.94-9.89 11.07-9.89 11.07s7.9-9.76 8.17-13.97c-.84-44.06-5.37-52.07-5.37-52.07z" transform="translate(-4.227 -173.6)"/>
  <path style="fill:url(#k);fill-rule:evenodd;stroke:#fff;stroke-width:.5;stroke-opacity:.39216" d="M527.6 457.84c.32-1.31 3.41-1.42 3.41-1.42s5.22-6.47 14.5-13.65c8.99-10.31 15.92-45.77 15.92-45.77l7.1 8.82-17.62 36.95-13.08 15.07s9.29.77 14.79-.86c16.29-6.74 29.56-20.46 29.56-20.46l2.56 12.22s-18.52 6.22-30.42 13.65c-17.3 1.17-13.36 8.24-13.36 8.24s.22 1.91 17.34 5.12c11.15 6.33 26.44 11.08 26.44 11.08l-1.71 12.79s-14.05-13.71-27.86-19.33c-12.1-1.35-16.56-5.01-22.45-4.54 6.61-9.49-.97-17.11-5.12-17.91z" transform="translate(-4.227 -173.6)"/>
  <path style="fill:url(#l);fill-rule:evenodd;stroke:#fff;stroke-width:.5;stroke-opacity:.39216" d="M569.68 531.59c-2.01 3.87-4.52 7.28-6.43 9.93-1.66-21.01-14.44-47.16-17.16-48 .3-4.87-.29-4.34 2.34-4.55 8.66 10.37 19.23 44.29 21.25 42.62z" transform="translate(-4.227 -173.6)"/>
  <path style="fill:url(#m);fill-rule:evenodd;stroke:#fff;stroke-width:.5;stroke-opacity:.19608" d="M541.24 552.75s-5.9 1.32-12.13.9c4.56-1.32 7.34-13.19 7.64-52.55-2.4-10.62-10.78-16.17-10.78-16.17l-.9-7.64s-2.66-4-6.74 4.49c-5.84 6.48-27.99 15.26-30.54 20.22-2.55-5.37-3.12-11.35-3.14-13.93 4.51 2.21 34.58-11.23 34.58-11.23v-6.73s.87-4.71 4.04-4.5c-.86 9.65 8.54 12.58 8.54 12.58v7.64s2.69 6.22 8.53 12.57c3.15 9.95.9 54.35.9 54.35z" transform="translate(-4.227 -173.6)"/>
  <path style="fill:#4d4d4d;fill-rule:evenodd;stroke:#fff;stroke-width:.5;stroke-opacity:.39216" d="M508.9 394.65s-6.72 3.94-10.33 11.23c6.72-6.64 25.15 34.13 25.15 34.13l1.35 10.78s1.58-10.36 1.35-13.92c-1.58-5.36-17.52-42.22-17.52-42.22z" transform="translate(-4.227 -173.6)"/>
  <path style="fill:#666;fill-rule:evenodd;stroke:#fff;stroke-width:.5;stroke-opacity:.39216" d="M484 448.69s1.34-11.87 2.89-13.17c9.64 8.14 33.24 20.66 33.24 20.66s-1.35 2.63-1.35 6.74c-6.28-8.47-34.78-14.23-34.78-14.23Z" transform="translate(-4.227 -173.6)"/>
  <path style="fill:#4d4d4d;fill-rule:evenodd;stroke:#fff;stroke-width:.5;stroke-opacity:.39216" d="M524.41 486.8s2.03 5.01-.76 11.83c-4.56 9.59-13.4 29.02-20.64 34.75-2.96-1.32-8.35-10.49-10.83-15.86 4.83 17.53 20.14 27.94 20.14 27.94l-3.52-4.78s16.78-36.05 18.12-41.79c.34-6.26-2.51-12.09-2.51-12.09z" transform="translate(-4.227 -173.6)"/>
  <path style="fill:#1a1a1a;fill-rule:evenodd" d="M488.15 434.69c6.7 3.79 20.38 14.87 22.91 12.59 1.78-4.56 4.82-15.67-14.6-30.72-3.31-.7-6.95 12.32-8.31 18.13zM485.1 482.38c31.12-7.03 16.35-11.05 18.88-13.34-3.5-5.06 11.11-9.12-19.38-13.85-1.3 3.08-.16 25.41.5 27.19zM489.63 502.3c5.44-5.05 15.09-10.35 20.9-12.84 1.78 4.55 2.3 20.2-12.84 30.71-3.31.7-6.7-12.06-8.06-17.87zM510.56 397.68s8.57-4.04 14.6 4.78c3.51 4.29-.5 27.95-.5 27.95zM540.27 404.98l-1.01 28.45s11.67-17.81 10.07-22.91c-1.6-5.1-9.06-5.54-9.06-5.54z" transform="translate(-4.227 -173.6)"/>
  <path style="fill:#333;fill-rule:evenodd" d="M546.81 448.79s3.28-3.5 5.04-6.3c1.75-2.79 6.04-12.59 6.04-12.59l1.76 6.3s7.03.64 6.55 5.29c-3.26 3.13-19.14 9.81-19.14 9.81zM563.93 459.61c2.88 4.42 1.6 15.3-.25 17.37-5.63-3.97-13.33-4.82-13.09-8.56-.01-4.74 8.7-5.92 13.34-8.81zM548.32 485.04c2.39-2.27 17.55 7.56 18.38 11.08-11-5.55-4.77 10.7-8.06 9.56-8.07-21.52-12.46-17.37-10.32-20.64zM542.03 505.43c5.3 7.41 10.12 18.28 8.31 22.91-1.82 4.63-7.81 4.03-7.81 4.03s.99-21.26-.5-26.94z" transform="translate(-4.227 -173.6)"/>
  <path style="fill:#1a1a1a;fill-rule:evenodd" d="M511.1 538.45s8.57 4.04 14.6-4.78c3.51-4.29-.5-27.94-.5-27.94z" transform="translate(-4.227 -173.6)"/>
  <path style="fill:url(#n);stroke:#a4a4a4;stroke-width:.5" d="M536.51 466.79c.04 5.62-2.95 10.21-6.67 10.24-3.73.02-6.78-4.52-6.82-10.14-.05-5.62 2.95-10.21 6.67-10.24 3.02-.02 5.59 2.8 6.5 7.15" transform="translate(-4.227 -173.6)"/>
  <path style="fill:#000;fill-rule:evenodd;stroke:#000;stroke-width:1px" d="m274.27 386.69 137.85-29.13h31.26l2.84 13.5-20.6 31.97-44.06 16.35-97.34 5.68z" transform="translate(-4.227 -173.6)"/>
  <path style="fill:#ececec;fill-rule:evenodd;stroke:#000;stroke-width:1px" d="M501.2 384.98c-26.15 25.67-36.74 81.25-33.24 155.11 1.39 7.68-.83 8.02-8.47 9.78-111.99 6.89-249.7-.88-249.7-.88l-6.44-7.59-106.89-1.96-3.259 9.13-75.604-5.87s-7.011-1.06-9.776-7.82c-1.91-3.77-.652-15.64-.652-15.64l3.259-2.61 3.911-71.69s-6.061-4.34-1.956-9.13c-.171-4.35.798-14.49 2.607-19.55 1.81-5.65 2.506-5.38 17.551-24.17-13.897 22.65-7.186 17.3 6.565 24.17 4.405-17.58 13.035-29.98 13.035-29.98s148.82 3.56 226.81 1.3c-4.13 9.48 12.23 29.8 18.9 32.59 38.24.06 116.95 1.24 138.83-35.19 50.31-.76 62-6.78 64.52 0z" transform="translate(-4.227 -173.6)"/>
  <path style="fill:#000;fill-opacity:.19608;fill-rule:evenodd;stroke:#fff;stroke-width:1px;stroke-opacity:.39216" d="m39.011 416.25 12.659-29.97s-9.61-5.68-14.21-18.08c-8.992 1.29-16.04 26.44-13.95 34.88-1.27 12.3 15.501 13.17 15.501 13.17z" transform="translate(-4.227 -173.6)"/>
  <path style="fill:#ececec;fill-rule:evenodd;stroke:#999;stroke-width:1px" d="M195.47 289.81c1.93 5.55 56.82 1.51 131.14 1.46 76.88-.05 165.5-1.11 202.4-4.43 16.53 3.15 18.03 27.43 18.81 34.64-135.99 27.86-136.59 38.1-136.59 38.1L278.11 386.8s-176.14 1.21-227.63-.49c-17.843-14.08-13.361-26.97-3.963-32.66 11.379-12.62 56.783-29.11 81.163-38.11 28.83-11.97 52.47-10.02 67.79-25.73z" transform="translate(-4.227 -173.6)"/>
  <path style="fill:#ececec;fill-rule:evenodd;stroke:#999;stroke-width:1px" d="M437.01 385.24c7.08-16.27 13.12-31.02-25.57-25.6 1.75-8.98 72.21-26.37 176-45.43 3.28 12.77 9.84 15.71 14.87 39.96 8.28 27.05 4.65 147.33 4.65 147.33l-12.55 1.39s17.93-181.55-93.42-118.51c-3.96-5.32-42.21 1.98-63.98.86z" transform="translate(-4.227 -173.6)"/>
  <path style="fill:#1a1a1a;fill-rule:evenodd;stroke:#000;stroke-width:1px" d="m61.895 396.04 197.9 2.22c-.01 0-2.51 10.43-12.22 14.16-14.71-.44-134.95-.93-176.25-1.67-11.322-1.02-9.435-14.71-9.435-14.71zM57.2 432.13c10.649-10.47 173.43-7 175.11 1.05 3.08 5.59-27.73 89.19-30.53 89.48-17.18 4.16-133.55.95-136.86-2.45-5.06-6.21-19.421-74.46-7.72-88.08ZM44.949 516.03c-8.984-36.38-11.053-66.31-11.053-66.31s-7.308 41.26-7 61.89c1.782 2.95 13.037 5.81 18.053 4.42zM300.66 455.49c16.69-3.73 106.33-6.7 106.33-6.7s15.39 3.75 23.23 14.3c-30.58 59.25-42.55 58.52-164.85 55.84 8.17-15.84 25.53-52.11 35.29-63.44z" transform="translate(-4.227 -173.6)"/>
  <path style="fill:#000;fill-opacity:.098039;fill-rule:evenodd" d="M289.16 376.18c12.89-7.64 65.49-34 132.86-51.71 49.34-16.5 104.33-26.37 114.83-27.65-62.85 5.33-198.05 43.7-247.69 79.36z" transform="translate(-4.227 -173.6)"/>
  <path style="fill:#1a1a1a;fill-rule:evenodd" d="m61.406 537.27 34.804 2-3.2 9-41.005-3.8 10.002-1.2z" transform="translate(-4.227 -173.6)"/>
  <path style="fill:#000;fill-opacity:.098039;fill-rule:evenodd" d="M439.67 459.13c.82.07 1.93.04 2.86.37-6.28 30.45-15.8 45.06-31.81 52.96 13.48-11.96 21.64-24.01 28.95-53.33zM393.11 448.88l-121.61 4.26 30.71 2.43zM227.02 528.25s56.07-.85 145.66-11.14c-89.19-.19-96.64-1.76-96.64-1.76z" transform="translate(-4.227 -173.6)"/>
  <path style="fill:#fff;fill-opacity:.78431;fill-rule:evenodd" d="M396.99 514.48c21.51-14.37 19.5-20.25 20.43-19.92-7.45 21.08-26.74 27.1-46.64 27.98 9.18-1.82 12.27-.6 26.21-8.06z" transform="translate(-4.227 -173.6)"/>
  <path style="fill:#fff;fill-rule:evenodd" d="M74.24 423.55s-16.205 2.92-20.089 7.43c-13.928 29.4 6.988 87.34 6.988 87.34s-22.269-51.31-10.481-87.34c3.49-6.78 23.582-7.43 23.582-7.43z" transform="translate(-4.227 -173.6)"/>
  <path style="fill:#000;fill-opacity:.19608;fill-rule:evenodd" d="M40.618 418.57c-12.134 22.6 1.446 58.24 4.383 98.18-5.245-28.43-9.689-51.08-11.104-66.04-.247-2.97-3.354-14.41 6.721-32.14zM14.597 445.3l19.875 4.38s-.53.43-1.236 2.08c-16.93-2.79-18.639-6.46-18.639-6.46zM250.22 413.25s-1.27 3.65-11.15 3.3c-15.26 0-162.29-3.21-165.8-3.15-18.726-1.46-12.679-14.09-12.679-14.09s1.527 10.57 17.493 12.42c4.811-.18 172.14 1.52 172.14 1.52z" transform="translate(-4.227 -173.6)"/>
  <path style="fill:url(#o);fill-rule:evenodd" d="M249.9 461.25s-22.4 52.64-25.37 60.65c-1.52 7.13 4.67 6.12 4.67 6.12l36.44-9.33 35-64.15z" transform="translate(-4.227 -173.6)"/>
  <path style="fill:#000;fill-opacity:.19608;fill-rule:evenodd" d="M204.17 526.59c4.34-.17 28.87-68.94 26.98-82.8.76 7.59-26.57 78.58-29.37 78.87-17.18 4.16-134.88.95-136.86-2.45-2.249 5.41 94.62 12.03 139.25 6.38z" transform="translate(-4.227 -173.6)"/>
  <path style="fill:url(#p);fill-rule:evenodd" d="M108.01 333.84s60.83-35.58 120.33-38.84c37.71-4.21 110.26 1.64 126.01 11.37-119.73 47.63-246.34 27.47-246.34 27.47Z" transform="translate(-4.227 -173.6)"/>
  <path style="fill:#fff;fill-opacity:.39216;fill-rule:evenodd;filter:url(#q)" d="M58.949 384.85c-1.434-15.9 52.481-61.26 52.481-61.26s-71.436 24.08-69.819 43c3.236 11.98 11.837 17.98 17.338 18.26z" transform="translate(-4.227 -173.6)"/>
  <path style="fill:#1a1a1a;fill-rule:evenodd;stroke:#000;stroke-width:.83223px" d="M918.01 523.83s-47.97 3.12-54.25-2.61c-24.98-4.99-31.8-75.57-31.8-75.57s13.47-2.36 28.81 7.48c16.46 73.06 57.24 70.7 57.24 70.7z" transform="translate(-4.227 -173.6)"/>
  <path style="fill:#000;fill-rule:evenodd;stroke:#000;stroke-width:.99148px" d="M913.68 358.47c37.44-.91 54.63 49.12 56.04 77.98 1.4 28.87-14.53 85.22-50.76 86.7-39.48 1.11-57.31-50.28-58.47-79.5-1.15-29.23 14.13-84.28 53.19-85.18z" transform="translate(-4.227 -173.6)"/>
  <path style="fill:#e6e6e6;fill-rule:evenodd;stroke:#000;stroke-width:.83223px" d="M914.61 371.19c30.35-.79 44.28 42.7 45.42 67.79 1.14 25.1-11.77 74.08-41.14 75.37-32 .96-46.45-43.71-47.39-69.12-.94-25.4 11.45-73.25 43.11-74.04z" transform="translate(-4.227 -173.6)"/>
  <path style="fill:#4d4d4d;fill-rule:evenodd;stroke:#fff;stroke-width:.41611;stroke-opacity:.39216" d="M912.99 372.5h6.56s1.27 40.25-.66 45.75c-2.05 5.77-8.23 9.21-8.23 9.21s6.57-8.12 6.8-11.63c-.7-36.66-4.47-43.33-4.47-43.33z" transform="translate(-4.227 -173.6)"/>
  <path style="fill:url(#r);fill-rule:evenodd;stroke:#fff;stroke-width:.41611;stroke-opacity:.39216" d="M910.4 433.75c.26-1.09 2.84-1.18 2.84-1.18s4.35-5.38 12.07-11.36c7.48-8.58 13.24-38.09 13.24-38.09l5.92 7.34-14.67 30.75-10.88 12.54s7.73.65 12.3-.71c13.56-5.61 24.6-17.03 24.6-17.03l2.13 10.17s-15.41 5.18-25.31 11.36c-14.4.97-11.12 6.86-11.12 6.86s.18 1.59 14.43 4.26c9.29 5.26 22 9.22 22 9.22l-1.42 10.65s-11.69-11.41-23.18-16.09c-10.07-1.13-13.78-4.17-18.69-3.78 5.5-7.9-.8-14.24-4.26-14.91z" transform="translate(-4.227 -173.6)"/>
  <path style="fill:url(#s);fill-rule:evenodd;stroke:#fff;stroke-width:.41611;stroke-opacity:.39216" d="M945.42 495.13c-1.67 3.22-3.76 6.06-5.35 8.27-1.38-17.49-12.01-39.25-14.28-39.96.25-4.05-.24-3.61 1.95-3.78 7.21 8.63 16 36.86 17.68 35.47z" transform="translate(-4.227 -173.6)"/>
  <path style="fill:url(#t);fill-rule:evenodd;stroke:#fff;stroke-width:.41611;stroke-opacity:.19608" d="M921.75 512.74s-4.91 1.1-10.09.75c3.79-1.1 6.11-10.98 6.36-43.74-2-8.83-8.97-13.45-8.97-13.45l-.75-6.36s-2.22-3.33-5.61 3.74c-4.86 5.39-23.29 12.7-25.42 16.82-2.12-4.46-2.6-9.44-2.62-11.59 3.76 1.84 28.79-9.34 28.79-9.34v-5.61s.72-3.92 3.36-3.74c-.72 8.03 7.1 10.47 7.1 10.47v6.35s2.25 5.18 7.11 10.47c2.62 8.28.74 45.23.74 45.23z" transform="translate(-4.227 -173.6)"/>
  <path style="fill:#4d4d4d;fill-rule:evenodd;stroke:#fff;stroke-width:.41611;stroke-opacity:.39216" d="M894.84 381.16s-5.59 3.28-8.6 9.35c5.59-5.52 20.94 28.41 20.94 28.41l1.12 8.97s1.31-8.62 1.12-11.59c-1.32-4.46-14.58-35.14-14.58-35.14z" transform="translate(-4.227 -173.6)"/>
  <path style="fill:#666;fill-rule:evenodd;stroke:#fff;stroke-width:.41611;stroke-opacity:.39216" d="M874.12 426.14s1.11-9.88 2.4-10.96c8.02 6.77 27.67 17.19 27.67 17.19s-1.13 2.19-1.13 5.61c-5.23-7.05-28.94-11.84-28.94-11.84z" transform="translate(-4.227 -173.6)"/>
  <path style="fill:#4d4d4d;fill-rule:evenodd;stroke:#fff;stroke-width:.41611;stroke-opacity:.39216" d="M907.74 457.86s1.7 4.17-.63 9.84c-3.79 7.98-11.15 24.15-17.18 28.92-2.46-1.1-6.95-8.73-9-13.2 4.01 14.59 16.76 23.25 16.76 23.25l-2.94-3.98s13.97-29.99 15.09-34.78c.28-5.2-2.1-10.05-2.1-10.05z" transform="translate(-4.227 -173.6)"/>
  <path style="fill:#1a1a1a;fill-rule:evenodd" d="M877.57 414.49c5.58 3.15 16.96 12.38 19.07 10.47 1.48-3.79 4.01-13.04-12.15-25.56-2.76-.58-5.79 10.25-6.92 15.09zM875.03 454.18c25.9-5.86 13.61-9.2 15.72-11.11-2.92-4.21 9.24-7.59-16.14-11.52-1.07 2.56-.13 21.15.42 22.63zM878.8 470.75c4.53-4.2 12.56-8.61 17.39-10.68 1.49 3.79 1.92 16.81-10.68 25.56-2.76.58-5.58-10.04-6.71-14.88zM896.22 383.69s7.13-3.36 12.15 3.98c2.93 3.57-.42 23.25-.42 23.25zM920.94 389.76l-.84 23.68s9.72-14.82 8.39-19.07c-1.34-4.24-7.55-4.61-7.55-4.61z" transform="translate(-4.227 -173.6)"/>
  <path style="fill:#333;fill-rule:evenodd" d="M926.39 426.22s2.73-2.91 4.19-5.24c1.46-2.33 5.03-10.47 5.03-10.47l1.47 5.23s5.84.54 5.44 4.4c-2.7 2.61-15.92 8.17-15.92 8.17zM940.64 435.23c2.39 3.67 1.33 12.73-.21 14.45-4.69-3.3-11.1-4.01-10.9-7.12-.01-3.95 7.24-4.93 11.11-7.33zM927.65 456.39c1.99-1.89 14.6 6.29 15.29 9.22-9.15-4.62-3.97 8.9-6.7 7.96-6.72-17.91-10.37-14.45-8.59-17.18zM922.41 473.36c4.41 6.17 8.42 15.21 6.91 19.07-1.51 3.85-6.49 3.35-6.49 3.35s.82-17.69-.42-22.42z" transform="translate(-4.227 -173.6)"/>
  <path style="fill:#1a1a1a;fill-rule:evenodd" d="M896.67 500.84s7.13 3.36 12.15-3.98c2.92-3.57-.42-23.25-.42-23.25z" transform="translate(-4.227 -173.6)"/>
  <path style="fill:url(#u);stroke:#a4a4a4;stroke-width:.41611" d="M917.82 441.2c.03 4.68-2.46 8.5-5.56 8.52-3.1.02-5.64-3.76-5.67-8.44-.04-4.68 2.45-8.49 5.55-8.51 2.51-.02 4.65 2.33 5.41 5.95" transform="translate(-4.227 -173.6)"/>
  <path style="fill:#ececec;fill-rule:evenodd;stroke:#999;stroke-width:1px" d="M594.1 503.85c.55 34.82-7.64 39.52-7.64 39.52s209.22-25.73 268.09-30.99c18 .14 21.26-6.79 16.16-29.63-1.5-14.32.9-30.99.9-30.99s-7.01 0-13.92.45c.28 16.62-6.51 13.64-19.31 17.51-68.93 9.26-196.34 27.61-244.28 34.13z" transform="translate(-4.227 -173.6)"/>
  <path style="fill:#ececec;fill-rule:evenodd;stroke:#999;stroke-width:1px" d="M530.76 286.93c16.02 4.91 16.83 34.93 16.83 34.93s17.97-4.12 39.92-6.86c6.67 18.16 27.07 33.51 19.33 186.48 37.8-4.81 236.38-32.43 236.38-32.43s16.29-1.34 14.35-16.84c4.91-2.4 14.34-.62 14.34-.62s13.97-122.51 73.6-80.46c11.22 9.94 16.83 31.81 16.83 31.81l3.12 24.95 5.62-3.75s.21-64.13-19.96-85.44c-8.95-10.71-23.53-24.49-34.93-32.43 2.95-1.08 11.23-2.5 11.23-2.5s-16.6-2.46-23.08-18.08c-10.21-10.02-34.68-46.85-41.78-51.15-3.37-7.41 8.39-8.23-24.95-24.32-32.72-16.09-78.34-26.78-111.64-29.31-44.53-4.41-86.35 2.35-102.91 9.98-15.94 6.38-71.1 87.31-71.1 87.31s.19 9.44-21.2 8.73z" transform="translate(-4.227 -173.6)"/>
  <path style="fill:#000;fill-opacity:.19608;fill-rule:evenodd" d="M798.94 307.52c76.69-16.06 122.24-5.62 122.24-5.62l-10.6-4.99s-14.32-13.88-111.64 10.61z" transform="translate(-4.227 -173.6)"/>
  <path style="fill:#1a1a1a;fill-rule:evenodd;stroke:#000;stroke-width:1px" d="M587.83 314.6s87.92-15.04 181.61-25.29c42.6-6.2 80.49-21.4 82.96-25.29 3.49-11.99-21.58-40.17-27.31-44.01-10.8-3.85-81.04-33.78-167.45-17.2-27.73 2.92-52.15 53-61.72 68.29-13.62 24.4-8.09 43.5-8.09 43.5z" transform="translate(-4.227 -173.6)"/>
  <path style="fill:#000;fill-rule:evenodd" d="M771.97 282.23s-16.16-65.08-24.79-75.38c5.03-2.71 54.18 5.45 74.87 16.19 8.55 6.19 19.47 18.99 25.29 37.44-2.78 6.81-75.37 21.75-75.37 21.75z" transform="translate(-4.227 -173.6)"/>
  <path style="fill:#000;fill-rule:evenodd;stroke:#000;stroke-width:1px" d="M736.56 206.35c1.77 3.03 23.99 61.06 25.29 77.4-42.71 6.21-141.64 18.71-141.64 18.71l-11.13-40.47s20.97-36.47 40.97-51.6c15.95-6.53 83.72-7.58 86.51-4.04z" transform="translate(-4.227 -173.6)"/>
  <path style="fill:#1a1a1a;fill-rule:evenodd;stroke:#000;stroke-width:1px" d="M607.56 259.97c2.02 1.01 10.12 32.38 10.12 32.38l20.23 1.01s27.18-.06 57.67-6.07c-3.4 9.17-11.34 11.92-20.74 13.66-15.97 3.21-32.65 1.73-82.96 11.13-4.28-29.05 15.68-52.11 15.68-52.11z" transform="translate(-4.227 -173.6)"/>
  <path style="fill:#fff;fill-rule:evenodd;stroke:#000;stroke-width:1px" d="M617.68 292.35s-5.04-6.05-3.04-11.64c2-5.58 9.6-13.43 22.26-16.19 21.76-4.78 50.34 4.3 57.67 11.64 2.77 4.3 3.24 8.53 1.01 11.63-46.23 8.67-77.9 4.56-77.9 4.56z" transform="translate(-4.227 -173.6)"/>
  <path style="fill:#b3b3b3;fill-rule:evenodd;stroke:#999;stroke-width:1px" d="M650.45 286.58c1.87-.87 34.08-2.17 45.16-6.13.82 1.42.53 6.45-.68 7.02-21.39 4-39.17 4.95-52.63 5.16-1.85-.53-1.55-3.39 8.15-6.05z" transform="translate(-4.227 -173.6)"/>
  <path style="fill:#fff;fill-opacity:.098039;fill-rule:evenodd;filter:url(#v)" d="M650.06 294.2c-1.3.33-34.86 4.5-49.55 4.57-.35 2.01.98 4.89.98 4.89s-13.47-9.34.32-13.7c-3.16 2.81-.32 5.22-.32 5.22z" transform="translate(-4.227 -173.6)"/>
  <path style="fill:#000;fill-rule:evenodd" d="M619.85 191.27c-43.41 43.06-68.13 92.44-74.15 93.72-43.38 5.44-335.72 6.53-335.72 6.53s50.7-44.09 133.46-93.13c38.27-4.55 98.57-17.55 276.41-7.12z" transform="translate(-4.227 -173.6)"/>
  <path style="fill:url(#w);fill-rule:evenodd;stroke:#999;stroke-width:1px" d="M743.32 182.36s-226.13-28.94-375.9 8.48c-41.16.94-123.12 62.92-170.56 97.59 5.17 5.82 13.58 3.39 13.58 3.39s40.1-37.76 132.37-93.34c69.36-14.85 227.7-11.3 278.44-5.72 46.49-17.32 122.07-10.4 122.07-10.4z" transform="translate(-4.227 -173.6)"/>
  <path style="fill:none;stroke:#fff;stroke-width:1.1" d="M777.89 287.08s8.06 13.48 17.85 21.27c6.51 13.07 15.42 25.06 13.75 67.98 1.35 22.75-11.32 41.5-6.28 81.12 8.82 10.77-1.29 16.67-1.29 16.67" transform="translate(-4.227 -173.6)"/>
  <path style="fill:#e6e6e6;fill-rule:evenodd;stroke:#999;stroke-width:1px" d="M607.23 485.23c1.33 0 90.19-15.15 250.25-33.48 2.34 15.09-9.84 16.53-22.54 17.92-104.87 15.01-228.7 32.13-228.7 32.13z" transform="translate(-4.227 -173.6)"/>
  <path style="fill:#000;fill-rule:evenodd" d="M915.53 306.32s3.44-1.8 12.65-2.45c15.32 7.52 23.35 23.91 26.92 39.17-20.9-25.13-39.57-36.72-39.57-36.72z" transform="translate(-4.227 -173.6)"/>
  <path style="fill:url(#x)" d="M348.88 395.22c0 9.02-6.05 16.34-13.5 16.34-7.46 0-13.5-7.32-13.5-16.34s6.04-16.35 13.5-16.35c7.45 0 13.5 7.33 13.5 16.35z" transform="translate(-4.227 -173.6)"/>
  <path style="fill:url(#y)" d="M346.75 395.22c0 9.02-5.1 16.34-11.37 16.34-6.28 0-11.37-7.32-11.37-16.34s5.09-16.35 11.37-16.35c6.27 0 11.37 7.33 11.37 16.35z" transform="translate(-4.227 -173.6)"/>
  <path style="fill:url(#z)" d="M407.54 387.4c0 11.38-7.62 20.61-17.02 20.61-9.4 0-17.02-9.23-17.02-20.61 0-11.37 7.62-20.6 17.02-20.6 9.4 0 17.02 9.23 17.02 20.6z" transform="translate(-4.227 -173.6)"/>
  <path style="fill:url(#A)" d="M404.85 387.4c0 11.38-6.42 20.61-14.33 20.61s-14.34-9.23-14.34-20.61c0-11.37 6.43-20.6 14.34-20.6s14.33 9.23 14.33 20.6z" transform="translate(-4.227 -173.6)"/>
  <path style="fill:#fff;fill-opacity:.19608;fill-rule:evenodd" d="M280.67 387.4s101.32-14.96 144.24-14.21c10.13-.9 16.34-7.11 16.34-7.11s1.03-9.86-31.27-5.68c-28.43 5.55-129.31 27-129.31 27z" transform="translate(-4.227 -173.6)"/>
  <path style="fill:url(#B);fill-rule:evenodd;stroke:#000;stroke-width:1px" d="M430.49 463.05c-7.82 5.72-96.81 7.84-96.81 7.84l9.08-19.11s48.69-2.53 64.54-3.14c5.22.02 20.04 9.01 23.19 14.41z" transform="translate(-4.227 -173.6)"/>
  <g>
    <path style="fill:#000;fill-rule:evenodd" d="M426.66 470.68c-126.15 6.72-140.02 5.51-140.02 5.51l-35.28 3.31s49.53 3.75 175.3-8.82zM418.75 486.81c-126.15 6.73-140.01 5.52-140.01 5.52l-35.28 3.3s49.52 3.75 175.29-8.82zM406.26 501.29c-126.15 6.72-133.4 6.06-133.4 6.06l-35.28 3.31s42.92 3.2 168.68-9.37z" transform="translate(-4.227 -173.6)"/>
  </g>
  <path style="fill:#000;fill-rule:evenodd" d="M20.12 464.84c12.259 6.72 13.607 5.51 13.607 5.51l3.428 3.31s-4.813 3.75-17.035-8.82zM21.019 480.98c13.07 6.72 14.507 5.51 14.507 5.51l3.655 3.3s-5.132 3.76-18.162-8.81zM22.439 495.45c14.344 6.72 15.168 6.06 15.168 6.06l4.012 3.31s-4.88 3.2-19.18-9.37z" transform="translate(-4.227 -173.6)"/>
  <path style="fill:#ececec;fill-rule:evenodd;stroke:#999;stroke-width:1px" d="M965.43 426.95c2.35 19.22-2.44 54.87-2.44 54.87s8.73-11.13 8.28-57.98c-1.62.24-4.3 2.58-5.84 3.11z" transform="translate(-4.227 -173.6)"/>
</svg>